<svg width="656" height="756" viewBox="0 0 656 756" fill="none" xmlns="http://www.w3.org/2000/svg">
<g clip-path="url(#clip0_312_333)">
<path d="M168.24 365.9V364.15H-317.11C-348.58 364.15 -377.12 376.95 -397.77 397.6C-418.43 418.25 -431.23 446.78 -431.23 478.23C-431.23 505.67 -420.07 530.56 -402.06 548.57C-384.04 566.59 -359.15 577.75 -331.71 577.75H143.86C190.86 577.75 232.52 584.27 268.56 596.98C322.63 616.06 364.05 649.02 392.06 694.95C420.05 740.88 434.609 799.85 434.609 870.95C434.609 918.04 427.97 960.05 415.15 996.58C395.9 1051.36 362.79 1093.8 317.16 1122.61C271.53 1151.41 213.32 1166.6 143.86 1166.6H-326.62C-355.46 1166.6 -381.62 1178.33 -400.56 1197.27C-419.5 1216.21 -431.23 1242.37 -431.23 1271.21V1967.73C-431.23 1999.81 -418.86 2029.25 -398.87 2050.93C-378.89 2072.6 -351.24 2086.51 -320.73 2087.45C-319.497 2087.48 -318.264 2087.5 -317.03 2087.49C-286.97 2087.49 -258.81 2076.2 -237.44 2055.49C-215.22 2033.93 -202.99 2004.75 -202.99 1973.41V1380.2H168.24C244.79 1380.2 314.15 1368.01 375.13 1344.81C466.59 1310 539.18 1250.37 588.84 1170.01C638.51 1089.65 665.26 988.6 665.26 870.95C665.26 792.89 653.369 722.18 630.729 660.02C596.769 566.77 538.58 492.75 460.14 442.09C381.71 391.43 283.07 364.15 168.24 364.15V365.9V367.65C244.43 367.65 313.35 379.72 373.88 402.64C464.68 437.04 536.59 495.85 585.87 575.18C635.14 654.51 661.76 754.39 661.76 870.95C661.76 949.03 649.93 1019.67 627.44 1081.71C593.7 1174.76 536.03 1248.46 458.24 1298.94C380.46 1349.42 282.52 1376.69 168.24 1376.7H-206.49V1973.41C-206.5 2003.84 -218.34 2032.07 -239.88 2052.98C-260.6 2073.05 -287.85 2083.98 -317.03 2083.99C-318.264 2084 -319.46 2083.98 -320.62 2083.95C-350.12 2083.04 -376.89 2069.6 -396.3 2048.55C-415.71 2027.51 -427.73 1998.9 -427.73 1967.73V1271.21C-427.73 1243.33 -416.39 1218.06 -398.08 1199.75C-379.77 1181.43 -354.5 1170.1 -326.62 1170.1H143.86C190.5 1170.1 232.22 1163.3 268.58 1150.11C323.12 1130.32 365.57 1096.1 394.32 1049.02C423.06 1001.95 438.109 942.07 438.109 870.95C438.109 823.24 431.6 780.83 418.84 744.04C399.71 688.86 366.47 646.33 320.23 617.68C274 589.03 214.84 574.25 143.86 574.25H-331.71C-358.2 574.25 -382.19 563.48 -399.58 546.1C-416.97 528.71 -427.73 504.71 -427.73 478.23C-427.73 447.74 -415.33 420.11 -395.3 400.08C-375.26 380.05 -347.62 367.65 -317.11 367.65H168.24V365.9Z" fill="#EDF0F1"/>
<path d="M-132.51 -11.16V-12.91H-617.86C-649.33 -12.91 -677.871 -0.110035 -698.521 20.55C-719.181 41.2 -731.98 69.73 -731.98 101.18C-731.98 128.62 -720.82 153.51 -702.81 171.52C-684.79 189.53 -659.901 200.69 -632.461 200.69H-156.891C-109.891 200.69 -68.2305 207.22 -32.1905 219.93C21.8795 239.01 63.2995 271.96 91.3095 317.89C119.3 363.82 133.859 422.8 133.859 493.89C133.859 540.98 127.22 583 114.39 619.52C95.1495 674.31 62.0395 716.74 16.4095 745.55C-29.2205 774.36 -87.4305 789.54 -156.891 789.54H-627.37C-656.21 789.54 -682.37 801.28 -701.31 820.22C-720.25 839.15 -731.98 865.32 -731.98 894.16V1590.68C-731.98 1622.76 -719.61 1652.2 -699.62 1673.88C-679.64 1695.54 -651.99 1709.46 -621.48 1710.4C-620.247 1710.43 -619.014 1710.44 -617.781 1710.43C-587.721 1710.43 -559.56 1699.15 -538.19 1678.43C-515.97 1656.88 -503.74 1627.7 -503.74 1596.35V1003.14H-132.51C-55.9605 1003.14 13.3995 990.96 74.3795 967.75C165.84 932.95 238.429 873.31 288.089 792.95C337.759 712.59 364.51 611.54 364.51 493.89C364.51 415.84 352.619 345.13 329.979 282.96C296.019 189.71 237.83 115.69 159.39 65.04C80.9595 14.38 -17.6805 -12.91 -132.51 -12.91V-11.16V-9.41003C-56.3205 -9.41003 12.5995 2.65997 73.1295 25.59C163.93 59.99 235.84 118.79 285.12 198.12C334.39 277.45 361.01 377.34 361.01 493.89C361.01 571.97 349.179 642.62 326.689 704.65C292.949 797.71 235.28 871.4 157.49 921.89C79.7095 972.37 -18.2305 999.64 -132.51 999.64H-507.24V1596.35C-507.25 1626.79 -519.09 1655.02 -540.63 1675.92C-561.35 1695.99 -588.601 1706.93 -617.781 1706.93C-619.014 1706.94 -620.21 1706.93 -621.37 1706.9C-650.87 1705.99 -677.64 1692.54 -697.05 1671.5C-716.46 1650.46 -728.48 1621.84 -728.48 1590.68V894.16C-728.48 866.28 -717.141 841.01 -698.831 822.69C-680.521 804.38 -655.25 793.04 -627.37 793.04H-156.891C-110.251 793.04 -68.5305 786.25 -32.1705 773.05C22.3695 753.27 64.8195 719.05 93.5695 671.97C122.31 624.89 137.359 565.02 137.359 493.89C137.359 446.18 130.849 403.78 118.089 366.99C98.9595 311.81 65.7195 269.28 19.4795 240.63C-26.7505 211.97 -85.9105 197.19 -156.891 197.19H-632.461C-658.951 197.19 -682.941 186.43 -700.331 169.04C-717.721 151.65 -728.48 127.66 -728.48 101.18C-728.48 70.69 -716.08 43.05 -696.05 23.02C-676.01 2.98997 -648.37 -9.40003 -617.86 -9.41003H-132.51V-11.16Z" fill="#EDF0F1"/>
</g>
<defs>
<clipPath id="clip0_312_333">
<rect width="656" height="756" fill="white"/>
</clipPath>
</defs>
</svg>
