<svg width="910" height="892" viewBox="0 0 910 892" fill="none" xmlns="http://www.w3.org/2000/svg">
<g clip-path="url(#clip0_313_342)">
<path d="M497.03 506.75V508.5H982.37C1013.84 508.5 1042.38 495.7 1063.04 475.05C1083.7 454.4 1096.49 425.87 1096.49 394.42C1096.49 366.98 1085.34 342.09 1067.32 324.08C1049.31 306.06 1024.42 294.9 996.98 294.9H521.4C474.4 294.9 432.74 288.38 396.7 275.66C342.64 256.58 301.21 223.63 273.21 177.7C245.21 131.77 230.65 72.7998 230.65 1.69983C230.65 -45.3902 237.29 -87.4102 250.12 -123.93C269.36 -178.72 302.47 -221.15 348.1 -249.96C393.73 -278.77 451.95 -293.95 521.4 -293.95H991.88C1020.72 -293.95 1046.89 -305.68 1065.82 -324.63C1084.76 -343.56 1096.49 -369.72 1096.49 -398.57V-1095.08C1096.49 -1127.16 1084.13 -1156.6 1064.14 -1178.28C1044.15 -1199.95 1016.51 -1213.86 985.99 -1214.8C984.763 -1214.83 983.533 -1214.85 982.3 -1214.84C952.23 -1214.84 924.07 -1203.55 902.7 -1182.84C880.48 -1161.29 868.25 -1132.1 868.26 -1100.76V-507.55H497.03C420.47 -507.55 351.11 -495.36 290.14 -472.16C198.68 -437.35 126.09 -377.72 76.42 -297.36C26.75 -217 0 -115.95 0 1.69983C0 79.7598 11.89 150.46 34.53 212.63C68.49 305.88 126.68 379.9 205.12 430.56C283.55 481.21 382.19 508.5 497.03 508.5V506.75V505C420.84 505 351.91 492.93 291.38 470.01C200.59 435.61 128.67 376.8 79.4 297.47C30.13 218.14 3.5 118.25 3.5 1.69983C3.5 -76.3802 15.34 -147.03 37.82 -209.07C71.56 -302.11 129.24 -375.81 207.02 -426.29C284.81 -476.78 382.74 -504.04 497.03 -504.05H871.76V-1100.76C871.76 -1131.19 883.6 -1159.42 905.14 -1180.33C925.86 -1200.4 953.11 -1211.33 982.3 -1211.34C983.533 -1211.35 984.727 -1211.33 985.88 -1211.3H985.89C1015.39 -1210.4 1042.15 -1196.95 1061.56 -1175.91C1080.97 -1154.86 1092.99 -1126.25 1092.99 -1095.08V-398.57C1092.99 -370.68 1081.66 -345.41 1063.35 -327.1C1045.03 -308.78 1019.76 -297.45 991.88 -297.45H521.4C474.76 -297.45 433.04 -290.66 396.68 -277.46C342.15 -257.67 299.69 -223.46 270.95 -176.38C242.2 -129.3 227.15 -69.4202 227.15 1.69983C227.15 49.4098 233.67 91.8199 246.43 128.61C265.56 183.79 298.8 226.32 345.03 254.97C391.27 283.62 450.42 298.4 521.4 298.4H996.98C1023.46 298.4 1047.45 309.16 1064.85 326.55C1082.23 343.94 1092.99 367.94 1092.99 394.42C1092.99 424.91 1080.6 452.54 1060.56 472.57C1040.53 492.6 1012.88 505 982.37 505H497.03V506.75Z" fill="#FF6A20"/>
<path d="M808.78 889.95V891.7H1294.12C1325.59 891.7 1354.13 878.9 1374.79 858.25C1395.45 837.6 1408.24 809.07 1408.24 777.62C1408.24 750.18 1397.09 725.29 1379.07 707.28C1361.06 689.26 1336.17 678.1 1308.73 678.1H833.15C786.15 678.1 744.49 671.58 708.45 658.86C654.39 639.78 612.96 606.83 584.96 560.9C556.96 514.97 542.4 456 542.4 384.9C542.4 337.81 549.04 295.79 561.87 259.27C581.11 204.48 614.22 162.05 659.85 133.24C705.48 104.43 763.7 89.2501 833.15 89.2501H1303.63C1332.47 89.2501 1358.64 77.5101 1377.57 58.5701C1396.51 39.6401 1408.24 13.4801 1408.24 -15.3699V-711.88C1408.24 -743.96 1395.88 -773.4 1375.89 -795.08C1355.9 -816.75 1328.26 -830.66 1297.74 -831.6C1296.51 -831.633 1295.28 -831.647 1294.05 -831.64C1263.98 -831.64 1235.82 -820.35 1214.45 -799.64C1192.23 -778.09 1180 -748.9 1180.01 -717.56V-124.35H808.78C732.22 -124.35 662.86 -112.16 601.89 -88.9599C510.43 -54.1499 437.84 5.48009 388.17 85.8401C338.5 166.2 311.75 267.25 311.75 384.9C311.75 462.96 323.64 533.66 346.28 595.83C380.24 689.08 438.43 763.1 516.87 813.75C595.3 864.41 693.94 891.7 808.78 891.7V889.95V888.2C732.59 888.2 663.66 876.13 603.13 853.21C512.34 818.81 440.42 760 391.15 680.67C341.88 601.34 315.25 501.45 315.25 384.9C315.25 306.82 327.09 236.17 349.57 174.13C383.31 81.0901 440.99 7.39009 518.77 -43.0899C596.56 -93.5799 694.49 -120.84 808.78 -120.85H1183.51V-717.56C1183.51 -747.99 1195.35 -776.22 1216.89 -797.13C1237.61 -817.2 1264.86 -828.13 1294.05 -828.14C1295.28 -828.147 1296.48 -828.133 1297.63 -828.1C1327.14 -827.2 1353.9 -813.75 1373.31 -792.71C1392.72 -771.66 1404.74 -743.05 1404.74 -711.88V-15.3699C1404.74 12.5101 1393.41 37.7901 1375.1 56.1001C1356.78 74.4201 1331.51 85.7501 1303.63 85.7501H833.15C786.51 85.7501 744.79 92.5401 708.43 105.74C653.9 125.53 611.44 159.74 582.7 206.82C553.95 253.9 538.9 313.78 538.9 384.9C538.9 432.61 545.42 475.02 558.18 511.81C577.31 566.99 610.55 609.52 656.78 638.17C703.02 666.82 762.17 681.6 833.15 681.6H1308.73C1335.21 681.6 1359.2 692.36 1376.6 709.75C1393.98 727.14 1404.74 751.14 1404.74 777.62C1404.74 808.11 1392.35 835.74 1372.31 855.77C1352.28 875.8 1324.63 888.2 1294.12 888.2H808.78V889.95Z" fill="white"/>
</g>
<defs>
<clipPath id="clip0_313_342">
<rect width="910" height="892" fill="white"/>
</clipPath>
</defs>
</svg>
