<svg width="720" height="369" viewBox="0 0 720 369" fill="none" xmlns="http://www.w3.org/2000/svg">
<g clip-path="url(#clip0_313_351)">
<path d="M236.31 2.3501V0.600098H-249.04C-280.51 0.600098 -309.05 13.4001 -329.7 34.0501C-350.36 54.7001 -363.16 83.2301 -363.16 114.68C-363.16 142.12 -352 167.01 -333.99 185.02C-315.97 203.04 -291.08 214.2 -263.64 214.2H211.93C258.93 214.2 300.59 220.72 336.64 233.44C390.7 252.52 432.12 285.47 460.13 331.4C488.12 377.33 502.68 436.3 502.68 507.4C502.68 554.49 496.04 596.51 483.22 633.03C463.97 687.82 430.86 730.25 385.23 759.06C339.6 787.87 281.39 803.05 211.93 803.05H-258.55C-287.39 803.05 -313.55 814.79 -332.49 833.73C-351.43 852.66 -363.16 878.82 -363.16 907.67V1604.18C-363.16 1636.26 -350.79 1665.7 -330.8 1687.38C-310.82 1709.05 -283.17 1722.96 -252.66 1723.9C-251.427 1723.93 -250.193 1723.95 -248.96 1723.94C-218.9 1723.94 -190.73 1712.65 -169.37 1691.94C-147.15 1670.39 -134.92 1641.2 -134.92 1609.86V1016.65H236.31C312.87 1016.65 382.22 1004.46 443.2 981.26C534.66 946.45 607.25 886.82 656.91 806.46C706.58 726.1 733.33 625.05 733.33 507.4C733.33 429.34 721.45 358.64 698.8 296.47C664.84 203.22 606.65 129.2 528.21 78.5501C449.78 27.8901 351.14 0.600098 236.31 0.600098V2.3501V4.1001C312.5 4.1001 381.42 16.1701 441.95 39.0901C532.75 73.4901 604.66 132.3 653.94 211.63C703.21 290.96 729.83 390.85 729.83 507.4C729.83 585.48 718 656.13 695.51 718.17C661.77 811.21 604.1 884.91 526.31 935.39C448.53 985.88 350.59 1013.14 236.31 1013.15H-138.42V1609.86C-138.43 1640.29 -150.26 1668.52 -171.81 1689.43C-192.52 1709.5 -219.78 1720.43 -248.96 1720.44C-250.193 1720.45 -251.39 1720.43 -252.55 1720.4C-282.05 1719.5 -308.82 1706.05 -328.23 1685.01C-347.64 1663.96 -359.66 1635.35 -359.66 1604.18V907.67C-359.66 879.79 -348.32 854.51 -330.01 836.2C-311.7 817.88 -286.43 806.55 -258.55 806.55H211.93C258.57 806.55 300.29 799.76 336.65 786.56C391.19 766.77 433.64 732.56 462.39 685.48C491.14 638.4 506.18 578.52 506.18 507.4C506.18 459.69 499.67 417.28 486.91 380.49C467.78 325.31 434.54 282.78 388.3 254.13C342.07 225.48 282.91 210.7 211.93 210.7H-263.64C-290.13 210.7 -314.12 199.94 -331.51 182.55C-348.9 165.16 -359.66 141.16 -359.66 114.68C-359.66 84.1901 -347.26 56.5601 -327.23 36.5301C-307.19 16.5001 -279.55 4.1001 -249.04 4.1001H236.31V2.3501Z" fill="#85878B"/>
</g>
<defs>
<clipPath id="clip0_313_351">
<rect width="720" height="369" fill="white"/>
</clipPath>
</defs>
</svg>
