<svg width="1516" height="251" viewBox="0 0 1516 251" fill="none" xmlns="http://www.w3.org/2000/svg">
<path d="M89.4189 0.100586C104.479 -0.608409 119.479 2.43201 133.074 8.94922C146.669 15.4665 158.433 25.257 167.311 37.4414C169.123 40.0381 170.095 43.1285 170.094 46.2949V46.6689C169.987 49.8468 168.899 52.9143 166.979 55.4492C165.06 57.9839 162.402 59.862 159.372 60.8262C156.342 61.7903 153.087 61.7932 150.056 60.834C147.024 59.8746 144.363 57.9996 142.439 55.4678C136.271 47.2836 128.241 40.6868 119.016 36.2227C109.79 31.7585 99.6323 29.5553 89.3857 29.7969C60.0381 29.797 43.1867 41.9728 43.1865 63.2109C43.1865 84.7512 65.0842 93.5022 91.5957 102.56L96.9209 104.368C133.353 116.687 174.637 130.644 174.637 179.038C174.637 224.188 142.67 250.079 86.9658 250.079C70.1284 250.941 53.3698 247.249 38.4531 239.393C23.5366 231.536 11.0131 219.806 2.2002 205.436C0.761821 202.968 0.00255469 200.164 0 197.308V196.978C0.0329475 194.994 0.456497 193.036 1.24609 191.217C2.03569 189.397 3.17565 187.751 4.60156 186.372C6.02755 184.993 7.71144 183.909 9.55664 183.181C11.4019 182.453 13.373 182.095 15.3564 182.129C18.045 182.101 20.6934 182.783 23.0342 184.105C25.375 185.428 27.3258 187.345 28.6885 189.663C34.8226 199.48 43.4494 207.496 53.6904 212.895C63.9317 218.293 75.4213 220.881 86.9883 220.394C123.904 220.394 142.604 206.348 142.604 179.05C142.604 151.751 116.182 143.249 85.6025 133.427C50.7325 122.219 11.1318 109.504 11.1318 63.2109C11.132 16.5988 53.317 0.100653 89.4189 0.100586ZM217.262 2.02539C221.512 2.02547 225.588 3.71382 228.594 6.71875C231.599 9.72404 233.288 13.8007 233.288 18.0508V170.427C233.288 204.522 249.921 219.712 287.188 219.712C335.225 219.712 340.726 191.577 340.726 170.427V17.6982C340.792 13.5162 342.517 9.53195 345.52 6.62012C348.522 3.70827 352.559 2.10733 356.741 2.16895C360.924 2.20092 365.264 3.89128 368.201 6.86914C371.138 9.84699 372.773 13.8686 372.747 18.0508V170.427C372.747 222.604 343.146 250.1 287.167 250.101C230.935 250.101 201.235 222.549 201.234 170.427V18.0508C201.234 13.8007 202.923 9.72404 205.929 6.71875C208.934 3.71364 213.011 2.02539 217.262 2.02539ZM865.063 0.100586C937.752 0.100586 977.792 44.5464 977.792 125.266C977.792 205.776 937.752 250.09 865.063 250.09C792.375 250.09 752.347 205.765 752.347 125.266C752.347 44.5465 792.376 0.100661 865.063 0.100586ZM493 5C493.334 5 493.668 5.00075 494 5.00391V5H666C709.571 5 736.242 32.1949 736.242 76.3105C736.242 120.426 709.182 148.044 665.611 148.044H612.426V234.219C612.44 236.351 612.021 238.463 611.192 240.428C610.364 242.392 609.145 244.168 607.608 245.646C604.592 248.509 600.58 250.086 596.421 250.046H595.904C591.67 249.792 587.695 247.917 584.807 244.81C581.919 241.703 580.339 237.603 580.395 233.361V132.844C580.412 128.974 581.965 125.269 584.712 122.543C587.459 119.817 591.176 118.292 595.046 118.304H662.146C667.794 118.874 673.498 118.176 678.841 116.261C684.184 114.345 689.033 111.26 693.031 107.231C697.03 103.203 700.078 98.3318 701.953 92.9746C703.828 87.6174 703.85 81.9406 703.869 76.2666C703.888 70.5926 703.89 64.9227 702.023 59.5664C700.157 54.21 697.102 49.3453 693.089 45.3359C689.076 41.3267 684.208 38.2764 678.85 36.4141C673.491 34.5518 667.5 34 662 34H552.605C559.698 45.2087 563.521 59.3768 563.521 75.9902C563.52 120.106 536.46 147.724 492.889 147.724H439.704V233.986C439.72 236.119 439.298 238.232 438.466 240.195C437.633 242.159 436.408 243.931 434.864 245.402C432.058 248.083 428.369 249.647 424.491 249.802C424.227 249.815 423.963 249.815 423.699 249.802H423.171C418.925 249.556 414.937 247.679 412.041 244.564C409.145 241.449 407.564 237.336 407.628 233.084V132.601C407.651 128.729 409.208 125.023 411.959 122.298C414.71 119.572 418.429 118.048 422.302 118.06H489.402C495.05 118.628 500.752 117.929 506.095 116.013C511.437 114.096 516.285 111.012 520.283 106.983C524.281 102.955 527.329 98.0847 529.205 92.7285C531.081 87.3725 531.102 81.6968 531.125 76.0234C531.148 70.3499 531.158 64.6795 529.297 59.3213C527.436 53.963 524.387 49.0946 520.378 45.0811C516.369 41.0675 511.504 38.0125 506.147 36.1445C500.791 34.2766 494.5 34 489 34H423C415 34 407 28.9998 407 19.5C407 10.0004 415 5.00012 423 5H493ZM1023 5H1093C1102.5 5 1111.1 6.3005 1119.74 9.71973C1128.38 13.139 1136.24 18.2732 1142.84 24.8125C1149.44 31.3519 1154.65 39.1614 1158.14 47.7686C1161.64 56.3755 1163.36 65.6022 1163.2 74.8916C1164.03 91.4374 1158.64 107.696 1148.09 120.47C1137.54 133.243 1122.59 141.609 1106.18 143.92L1163.71 222.373C1165.9 225.147 1167.06 228.588 1167.01 232.118V232.448C1166.98 234.521 1166.54 236.567 1165.72 238.47C1164.9 240.373 1163.71 242.095 1162.22 243.538C1160.73 244.981 1158.97 246.117 1157.05 246.881C1155.12 247.645 1153.06 248.021 1150.99 247.989C1148.29 248.011 1145.62 247.347 1143.25 246.061C1140.87 244.774 1138.86 242.905 1137.4 240.631L1068.1 144.942H1039.39V232.173C1039.39 236.423 1037.7 240.5 1034.7 243.505C1031.69 246.51 1027.62 248.198 1023.37 248.198C1019.11 248.198 1015.04 246.51 1012.03 243.505C1009.03 240.5 1007.34 236.423 1007.34 232.173V20.4707C1007.37 18.398 1007.81 16.3507 1008.63 14.4473C1009.45 12.5441 1010.64 10.821 1012.12 9.37695C1013.61 7.93277 1015.37 6.79632 1017.3 6.03125C1019.22 5.26625 1020.93 4.96945 1023 5ZM1184 5H1332C1336.03 5.00729 1340.27 6.53304 1343.11 9.38672C1345.95 12.2404 1347.55 16.1065 1347.54 20.1348C1347.53 24.1632 1345.93 28.0238 1343.07 30.8672C1340.22 33.7106 1336.35 35.3042 1332.32 35.2969H1274.63V232.173C1274.63 236.423 1272.94 240.5 1269.93 243.505C1266.93 246.51 1262.85 248.198 1258.6 248.198C1254.35 248.198 1250.27 246.51 1247.27 243.505C1244.26 240.5 1242.57 236.423 1242.57 232.173V35.2969H1184.19C1182.2 35.2839 1180.24 34.8807 1178.42 34.1104C1176.59 33.34 1174.94 32.217 1173.54 30.8066C1172.15 29.3962 1171.05 27.7255 1170.3 25.8896C1169.56 24.0539 1169.18 22.089 1169.19 20.1074V19.7881C1169.25 15.785 1170.9 11.97 1173.77 9.18164C1176.65 6.39315 1180 4.94122 1184 5ZM1385 5H1496C1497.95 5 1500.22 5.26951 1502.03 6.01562C1503.83 6.76182 1505.47 7.85559 1506.84 9.23438C1508.22 10.613 1509.32 12.2496 1510.06 14.0508C1510.81 15.8522 1511.19 17.7835 1511.19 19.7334C1511.19 21.6833 1510.81 23.6145 1510.06 25.416C1509.32 27.2172 1508.22 28.8538 1506.84 30.2324C1505.47 31.6112 1503.83 32.705 1502.03 33.4512C1500.22 34.1973 1498.29 34.582 1496.34 34.582H1400.72V109.373H1473.04C1476.97 109.373 1480.75 110.937 1483.54 113.722C1486.32 116.506 1487.88 120.283 1487.88 124.221C1487.88 128.159 1486.32 131.935 1483.54 134.72C1480.75 137.504 1476.97 139.069 1473.04 139.069H1400.72V215.543L1500.16 215.554C1504.1 215.554 1507.88 217.119 1510.66 219.903C1513.45 222.688 1515.01 226.464 1515.01 230.402C1515.01 234.34 1513.45 238.117 1510.66 240.901C1507.88 243.686 1504.1 245.25 1500.16 245.25H1384.35C1380.17 245.224 1376.17 243.538 1373.22 240.562C1370.28 237.585 1368.64 233.563 1368.67 229.379V20.4043C1368.73 16.2231 1370.46 12.2393 1373.46 9.3291C1376.46 6.4189 1380.82 4.93531 1385 5ZM865.053 29.7861C811.989 29.7861 785.083 61.9243 785.083 125.266C785.083 188.387 811.988 220.393 865.063 220.394C918.139 220.394 945.045 188.387 945.045 125.266C945.045 61.9244 918.117 29.7862 865.053 29.7861ZM1092.17 34.626H1039.37V115.246L1093.27 115.213C1098.42 115.137 1103.49 114.021 1108.2 111.932C1112.9 109.843 1117.13 106.823 1120.64 103.057C1124.14 99.2899 1126.85 94.8529 1128.6 90.0127C1130.35 85.1725 1131.1 80.0289 1130.8 74.8916C1131.09 69.6672 1130.3 64.4395 1128.48 59.5332C1126.66 54.6268 1123.85 50.1461 1120.23 46.3701C1116.61 42.5942 1112.25 39.6034 1107.42 37.583C1102.59 35.5627 1097.4 34.5563 1092.17 34.626Z" fill="black"/>
</svg>
