<svg width="1516" height="251" viewBox="0 0 1516 251" fill="none" xmlns="http://www.w3.org/2000/svg">
<path d="M89.4189 0.10083C104.479 -0.608165 119.479 2.43225 133.074 8.94946C146.669 15.4667 158.433 25.2573 167.311 37.4417C169.123 40.0383 170.095 43.1287 170.094 46.2952V46.6692C169.987 49.847 168.899 52.9146 166.979 55.4495C165.06 57.9842 162.402 59.8622 159.372 60.8264C156.342 61.7905 153.087 61.7935 150.056 60.8342C147.024 59.8748 144.363 57.9999 142.439 55.468C136.271 47.2838 128.241 40.687 119.016 36.2229C109.79 31.7588 99.6323 29.5555 89.3857 29.7971C60.0381 29.7972 43.1867 41.973 43.1865 63.2112C43.1865 84.7514 65.0842 93.5024 91.5957 102.56L96.9209 104.368C133.353 116.687 174.637 130.644 174.637 179.038C174.637 224.188 142.67 250.079 86.9658 250.079C70.1284 250.941 53.3698 247.249 38.4531 239.393C23.5366 231.537 11.0131 219.807 2.2002 205.436C0.761821 202.968 0.00255469 200.164 0 197.308V196.978C0.0329475 194.995 0.456497 193.037 1.24609 191.217C2.03569 189.398 3.17565 187.751 4.60156 186.372C6.02755 184.994 7.71144 183.909 9.55664 183.181C11.4019 182.453 13.373 182.096 15.3564 182.129C18.045 182.101 20.6934 182.783 23.0342 184.106C25.375 185.429 27.3258 187.346 28.6885 189.663C34.8226 199.48 43.4494 207.497 53.6904 212.895C63.9317 218.293 75.4213 220.881 86.9883 220.394C123.904 220.394 142.604 206.348 142.604 179.05C142.604 151.751 116.182 143.249 85.6025 133.427C50.7325 122.219 11.1318 109.505 11.1318 63.2112C11.132 16.5991 53.317 0.100897 89.4189 0.10083ZM217.262 2.02563C221.512 2.02572 225.588 3.71406 228.594 6.71899C231.599 9.72428 233.288 13.8009 233.288 18.051V170.427C233.288 204.523 249.921 219.712 287.188 219.712C335.225 219.712 340.726 191.577 340.726 170.427V17.6985C340.792 13.5165 342.517 9.53219 345.52 6.62036C348.522 3.70852 352.559 2.10757 356.741 2.16919C360.924 2.20117 365.264 3.89153 368.201 6.86938C371.138 9.84724 372.773 13.8689 372.747 18.051V170.427C372.747 222.604 343.146 250.101 287.167 250.101C230.935 250.101 201.235 222.549 201.234 170.427V18.051C201.234 13.8009 202.923 9.72428 205.929 6.71899C208.934 3.71388 213.011 2.02563 217.262 2.02563ZM865.063 0.10083C937.752 0.10083 977.792 44.5466 977.792 125.266C977.792 205.776 937.752 250.09 865.063 250.09C792.375 250.09 752.347 205.765 752.347 125.266C752.347 44.5467 792.376 0.100905 865.063 0.10083ZM493 5.00024C493.334 5.00024 493.668 5.00099 494 5.00415V5.00024H666C709.571 5.00024 736.242 32.1952 736.242 76.3108C736.242 120.426 709.182 148.044 665.611 148.044H612.426V234.219C612.44 236.351 612.021 238.463 611.192 240.428C610.364 242.393 609.145 244.168 607.608 245.647C604.592 248.509 600.58 250.086 596.421 250.046H595.904C591.67 249.792 587.695 247.917 584.807 244.81C581.919 241.703 580.339 237.603 580.395 233.362V132.844C580.412 128.974 581.965 125.269 584.712 122.543C587.459 119.817 591.176 118.292 595.046 118.304H662.146C667.794 118.874 673.498 118.176 678.841 116.261C684.184 114.345 689.033 111.26 693.031 107.232C697.03 103.203 700.078 98.3321 701.953 92.9749C703.828 87.6177 703.85 81.9408 703.869 76.2668C703.888 70.5928 703.89 64.923 702.023 59.5667C700.157 54.2103 697.102 49.3455 693.089 45.3362C689.076 41.327 684.208 38.2766 678.85 36.4143C673.491 34.5521 667.5 34.0002 662 34.0002H552.605C559.698 45.2089 563.521 59.377 563.521 75.9905C563.52 120.106 536.46 147.724 492.889 147.724H439.704V233.987C439.72 236.119 439.298 238.232 438.466 240.196C437.633 242.159 436.408 243.931 434.864 245.403C432.058 248.083 428.369 249.647 424.491 249.802C424.227 249.815 423.963 249.815 423.699 249.802H423.171C418.925 249.556 414.937 247.68 412.041 244.565C409.145 241.45 407.564 237.337 407.628 233.084V132.601C407.651 128.729 409.208 125.024 411.959 122.298C414.71 119.573 418.429 118.048 422.302 118.06H489.402C495.05 118.628 500.752 117.929 506.095 116.013C511.437 114.097 516.285 111.012 520.283 106.984C524.281 102.955 527.329 98.0849 529.205 92.7288C531.081 87.3727 531.102 81.6971 531.125 76.0237C531.148 70.3501 531.158 64.6798 529.297 59.3215C527.436 53.9633 524.387 49.0948 520.378 45.0813C516.369 41.0677 511.504 38.0128 506.147 36.1448C500.791 34.2769 494.5 34.0002 489 34.0002H423C415 34.0002 407 29 407 19.5002C407 10.0006 415 5.00036 423 5.00024H493ZM1023 5.00024H1093C1102.5 5.00024 1111.1 6.30074 1119.74 9.71997C1128.38 13.1392 1136.24 18.2734 1142.84 24.8127C1149.44 31.3522 1154.65 39.1617 1158.14 47.7688C1161.64 56.3758 1163.36 65.6024 1163.2 74.8918C1164.03 91.4376 1158.64 107.696 1148.09 120.47C1137.54 133.244 1122.59 141.609 1106.18 143.92L1163.71 222.373C1165.9 225.147 1167.06 228.588 1167.01 232.118V232.448C1166.98 234.521 1166.54 236.567 1165.72 238.47C1164.9 240.373 1163.71 242.095 1162.22 243.538C1160.73 244.981 1158.97 246.117 1157.05 246.881C1155.12 247.645 1153.06 248.022 1150.99 247.99C1148.29 248.011 1145.62 247.348 1143.25 246.061C1140.87 244.774 1138.86 242.906 1137.4 240.631L1068.1 144.943H1039.39V232.173C1039.39 236.423 1037.7 240.5 1034.7 243.505C1031.69 246.51 1027.62 248.198 1023.37 248.198C1019.11 248.198 1015.04 246.51 1012.03 243.505C1009.03 240.5 1007.34 236.423 1007.34 232.173V20.4709C1007.37 18.3982 1007.81 16.3509 1008.63 14.4475C1009.45 12.5443 1010.64 10.8212 1012.12 9.3772C1013.61 7.93302 1015.37 6.79656 1017.3 6.03149C1019.22 5.2665 1020.93 4.96969 1023 5.00024ZM1184 5.00024H1332C1336.03 5.00754 1340.27 6.53328 1343.11 9.38696C1345.95 12.2406 1347.55 16.1067 1347.54 20.135C1347.53 24.1634 1345.93 28.0241 1343.07 30.8674C1340.22 33.7108 1336.35 35.3044 1332.32 35.2971H1274.63V232.173C1274.63 236.423 1272.94 240.5 1269.93 243.505C1266.93 246.51 1262.85 248.198 1258.6 248.198C1254.35 248.198 1250.27 246.51 1247.27 243.505C1244.26 240.5 1242.57 236.423 1242.57 232.173V35.2971H1184.19C1182.2 35.2842 1180.24 34.8809 1178.42 34.1106C1176.59 33.3403 1174.94 32.2172 1173.54 30.8069C1172.15 29.3964 1171.05 27.7257 1170.3 25.8899C1169.56 24.0541 1169.18 22.0893 1169.19 20.1077V19.7883C1169.25 15.7853 1170.9 11.9703 1173.77 9.18188C1176.65 6.39339 1180 4.94146 1184 5.00024ZM1385 5.00024H1496C1497.95 5.00024 1500.22 5.26976 1502.03 6.01587C1503.83 6.76206 1505.47 7.85583 1506.84 9.23462C1508.22 10.6132 1509.32 12.2498 1510.06 14.051C1510.81 15.8525 1511.19 17.7838 1511.19 19.7336C1511.19 21.6835 1510.81 23.6148 1510.06 25.4163C1509.32 27.2175 1508.22 28.854 1506.84 30.2327C1505.47 31.6115 1503.83 32.7052 1502.03 33.4514C1500.22 34.1975 1498.29 34.5823 1496.34 34.5823H1400.72V109.373H1473.04C1476.97 109.373 1480.75 110.937 1483.54 113.722C1486.32 116.506 1487.88 120.283 1487.88 124.221C1487.88 128.159 1486.32 131.935 1483.54 134.72C1480.75 137.504 1476.97 139.069 1473.04 139.07H1400.72V215.543L1500.16 215.554C1504.1 215.554 1507.88 217.119 1510.66 219.904C1513.45 222.688 1515.01 226.465 1515.01 230.403C1515.01 234.341 1513.45 238.117 1510.66 240.902C1507.88 243.686 1504.1 245.25 1500.16 245.25H1384.35C1380.17 245.224 1376.17 243.538 1373.22 240.562C1370.28 237.586 1368.64 233.563 1368.67 229.379V20.4045C1368.73 16.2233 1370.46 12.2395 1373.46 9.32935C1376.46 6.41914 1380.82 4.93556 1385 5.00024ZM865.053 29.7864C811.989 29.7864 785.083 61.9246 785.083 125.266C785.083 188.387 811.988 220.394 865.063 220.394C918.139 220.394 945.045 188.387 945.045 125.266C945.045 61.9246 918.117 29.7864 865.053 29.7864ZM1092.17 34.6262H1039.37V115.246L1093.27 115.213C1098.42 115.137 1103.49 114.021 1108.2 111.932C1112.9 109.843 1117.13 106.824 1120.64 103.057C1124.14 99.2902 1126.85 94.8531 1128.6 90.0129C1130.35 85.1727 1131.1 80.0292 1130.8 74.8918C1131.09 69.6674 1130.3 64.4397 1128.48 59.5334C1126.66 54.627 1123.85 50.1463 1120.23 46.3704C1116.61 42.5945 1112.25 39.6036 1107.42 37.5833C1102.59 35.5629 1097.4 34.5565 1092.17 34.6262Z" fill="white"/>
</svg>
