<svg width="1516" height="251" viewBox="0 0 1516 251" fill="none" xmlns="http://www.w3.org/2000/svg">
<path d="M96.9542 104.379C68.1011 94.6124 43.1861 86.1875 43.1861 63.2112C43.1861 41.9728 60.0381 29.7972 89.3862 29.7972C99.6327 29.5556 109.789 31.7581 119.015 36.2222C128.241 40.6864 136.271 47.2838 142.439 55.4681C144.363 58 147.023 59.8743 150.055 60.8337C153.087 61.7932 156.341 61.7906 159.372 60.8264C162.402 59.8622 165.06 57.9837 166.979 55.4489C168.899 52.914 169.987 49.847 170.093 46.6692V46.2952C170.094 43.1286 169.123 40.0381 167.31 37.4413C158.433 25.2569 146.669 15.4669 133.074 8.94959C119.479 2.43233 104.479 -0.608218 89.4192 0.100779C53.3171 0.100779 11.132 16.5988 11.132 63.2112C11.132 109.505 50.7321 122.219 85.6022 133.427C116.182 143.249 142.604 151.751 142.604 179.049C142.604 206.348 123.904 220.393 86.9882 220.393C75.4212 220.88 63.9319 218.293 53.6906 212.895C43.4494 207.496 34.8222 199.48 28.6881 189.663C27.3254 187.345 25.3751 185.428 23.0342 184.105C20.6933 182.782 18.0448 182.101 15.356 182.129C13.3726 182.095 11.402 182.453 9.55677 183.181C7.71155 183.909 6.02786 184.994 4.60186 186.372C3.17587 187.751 2.0355 189.398 1.24591 191.217C0.45631 193.037 0.0329475 194.994 0 196.977C0 197.087 0 197.197 0 197.307C0.00247006 200.163 0.761549 202.968 2.2 205.435C11.013 219.806 23.5366 231.537 38.4533 239.393C53.3701 247.249 70.1287 250.94 86.9662 250.079C142.67 250.079 174.636 224.188 174.636 179.038C174.636 130.644 133.353 116.687 96.9212 104.368M356.742 2.16853C352.559 2.10679 348.523 3.70774 345.52 6.61969C342.516 9.53164 340.792 13.5164 340.726 17.6987C340.726 17.8087 340.726 17.9186 340.726 18.0396V170.426C340.726 191.577 335.226 219.711 287.189 219.711C249.92 219.711 233.288 204.522 233.288 170.426V18.0506C233.288 13.8005 231.6 9.72447 228.594 6.71919C225.589 3.7139 221.512 2.02555 217.261 2.02555C213.011 2.02555 208.934 3.7139 205.929 6.71919C202.923 9.72447 201.234 13.8005 201.234 18.0506V170.426C201.234 222.549 230.934 250.101 287.167 250.101C343.146 250.101 372.747 222.604 372.747 170.426V18.0506C372.773 13.8684 371.138 9.84679 368.201 6.86893C365.264 3.89107 360.924 2.20051 356.742 2.16853ZM945.045 125.266C945.045 188.387 918.139 220.393 865.064 220.393C811.989 220.393 785.083 188.387 785.083 125.266C785.083 61.9244 811.989 29.7862 865.053 29.7862C918.117 29.7862 945.045 61.9244 945.045 125.266ZM865.064 0.100779C792.376 0.100779 752.346 44.5465 752.346 125.266C752.346 205.765 792.376 250.09 865.064 250.09C937.752 250.09 977.792 205.776 977.792 125.266C977.792 44.5465 937.752 0.100779 865.064 0.100779ZM1093.27 115.246H1039.37V34.6256H1092.17C1097.4 34.556 1102.59 35.5626 1107.42 37.5829C1112.25 39.6033 1116.61 42.5944 1120.23 46.3703C1123.85 50.1463 1126.66 54.6266 1128.48 59.533C1130.3 64.4394 1131.09 69.6672 1130.8 74.8918C1131.1 80.0292 1130.35 85.1728 1128.6 90.0131C1126.85 94.8534 1124.14 99.2903 1120.64 103.057C1117.13 106.824 1112.9 109.843 1108.2 111.932C1103.49 114.021 1098.42 115.137 1093.27 115.213M1163.75 222.362L1106.18 143.92C1122.59 141.609 1137.54 133.244 1148.09 120.47C1158.64 107.696 1164.03 91.4377 1163.2 74.8918C1163.36 65.6022 1161.64 56.3754 1158.14 47.7682C1154.65 39.1611 1149.44 31.3522 1142.84 24.8128C1136.24 18.2734 1128.38 13.1391 1119.74 9.7198C1111.1 6.3005 1102.5 5 1093 5L1023 5C1020.93 4.96945 1019.22 5.2657 1017.3 6.03077C1015.37 6.79585 1013.61 7.93295 1012.12 9.37714C1010.64 10.8213 1009.45 12.5443 1008.63 14.4477C1007.81 16.3511 1007.37 18.3976 1007.34 20.4703C1007.34 20.5803 1007.34 20.6903 1007.34 20.8003V232.173C1007.34 236.423 1009.03 240.499 1012.03 243.504C1015.04 246.51 1019.11 248.198 1023.36 248.198C1027.62 248.198 1031.69 246.51 1034.7 243.504C1037.7 240.499 1039.39 236.423 1039.39 232.173V144.942H1068.1L1137.4 240.631C1138.86 242.906 1140.87 244.774 1143.25 246.06C1145.62 247.347 1148.29 248.011 1150.99 247.989C1153.06 248.021 1155.12 247.644 1157.05 246.881C1158.97 246.117 1160.73 244.981 1162.22 243.538C1163.71 242.095 1164.9 240.373 1165.72 238.47C1166.54 236.567 1166.98 234.521 1167.01 232.448C1167.01 232.338 1167.01 232.228 1167.01 232.118C1167.06 228.587 1165.9 225.147 1163.71 222.373M1332 5H1184C1180 4.94122 1176.65 6.39284 1173.77 9.18133C1170.9 11.9698 1169.25 15.7851 1169.19 19.7884V20.1074C1169.18 22.0891 1169.56 24.0539 1170.3 25.8897C1171.05 27.7256 1172.15 29.3964 1173.54 30.8068C1174.93 32.2173 1176.59 33.3397 1178.42 34.1101C1180.24 34.8804 1182.2 35.2836 1184.19 35.2966H1242.57V232.173C1242.57 236.423 1244.26 240.499 1247.27 243.504C1250.27 246.51 1254.35 248.198 1258.6 248.198C1262.85 248.198 1266.93 246.51 1269.93 243.504C1272.94 240.499 1274.63 236.423 1274.63 232.173V35.2966H1332.32C1336.35 35.3039 1340.22 33.7106 1343.07 30.8672C1345.93 28.0238 1347.53 24.1633 1347.54 20.1349C1347.55 16.1065 1345.95 12.2401 1343.11 9.38645C1340.27 6.53277 1336.03 5.00729 1332 5ZM1500.14 215.543H1400.72V139.069H1473.03C1476.97 139.069 1480.75 137.505 1483.54 134.72C1486.32 131.936 1487.88 128.159 1487.88 124.221C1487.88 120.283 1486.32 116.506 1483.54 113.722C1480.75 110.937 1476.97 109.373 1473.03 109.373H1400.72V34.5816H1496.34C1498.29 34.5816 1500.23 34.1976 1502.03 33.4514C1503.83 32.7052 1505.47 31.6115 1506.84 30.2327C1508.22 28.8539 1509.32 27.2171 1510.06 25.4156C1510.81 23.6141 1511.19 21.6833 1511.19 19.7334C1511.19 17.7835 1510.81 15.8527 1510.06 14.0513C1509.32 12.2498 1508.22 10.6129 1506.84 9.23415C1505.47 7.85536 1503.83 6.76165 1502.03 6.01546C1500.23 5.26927 1497.95 5 1496 5L1385 5C1380.82 4.93531 1376.46 6.41901 1373.46 9.32921C1370.46 12.2394 1368.73 16.2231 1368.67 20.4043C1368.67 20.5253 1368.67 20.6353 1368.67 20.7563V229.379C1368.64 233.563 1370.28 237.585 1373.22 240.562C1376.17 243.538 1380.17 245.224 1384.35 245.25H1500.16C1504.1 245.25 1507.88 243.686 1510.66 240.901C1513.45 238.117 1515.01 234.34 1515.01 230.402C1515.01 226.464 1513.45 222.687 1510.66 219.903C1507.88 217.118 1504.1 215.554 1500.16 215.554" fill="#57585A"/>
<path d="M666 5H494V34H662C667.5 34 673.492 34.552 678.85 36.4143C684.208 38.2767 689.076 41.3266 693.089 45.3359C697.102 49.3452 700.156 54.2101 702.023 59.5665C703.89 64.9228 703.888 70.5927 703.869 76.2667C703.85 81.9407 703.828 87.6176 701.953 92.9748C700.078 98.3321 697.03 103.203 693.031 107.232C689.033 111.26 684.185 114.345 678.841 116.261C673.498 118.176 667.794 118.874 662.146 118.304H595.046C591.176 118.292 587.459 119.817 584.711 122.543C581.964 125.269 580.412 128.974 580.394 132.844V233.361C580.338 237.602 581.919 241.702 584.807 244.809C587.695 247.916 591.669 249.792 595.904 250.046H596.421C600.58 250.086 604.591 248.509 607.608 245.646C609.144 244.168 610.364 242.392 611.192 240.428C612.02 238.463 612.44 236.351 612.426 234.219V148.044H665.611C709.182 148.044 736.242 120.426 736.242 76.3107C736.242 32.195 709.571 5 666 5Z" fill="#F46F02"/>
<path d="M494 5H563V34H494V5Z" fill="url(#paint0_linear_311_288)"/>
<path d="M493 5.00013H423C415 5.00024 407 10.0005 407 19.5002C407 29 415 34.0001 423 34.0001L489 34C494.5 34 500.791 34.2763 506.148 36.1443C511.504 38.0123 516.369 41.0674 520.378 45.0809C524.386 49.0945 527.436 53.9626 529.297 59.3209C531.158 64.6792 531.148 70.3494 531.125 76.023C531.102 81.6967 531.081 87.3727 529.205 92.7289C527.329 98.0852 524.281 102.955 520.283 106.983C516.285 111.012 511.437 114.096 506.095 116.013C500.752 117.929 495.049 118.628 489.402 118.06H422.302C418.429 118.048 414.71 119.572 411.959 122.298C409.209 125.023 407.651 128.728 407.628 132.6V233.084C407.564 237.337 409.145 241.45 412.041 244.565C414.937 247.68 418.925 249.556 423.171 249.802H423.699C423.963 249.816 424.227 249.816 424.491 249.802C428.369 249.647 432.057 248.083 434.864 245.403C436.408 243.931 437.633 242.159 438.466 240.195C439.298 238.232 439.719 236.119 439.704 233.986V147.723H492.889C536.46 147.723 563.52 120.106 563.52 75.9901C563.52 31.8744 536.571 5.00013 493 5.00013Z" fill="#F46F02"/>
<defs>
<linearGradient id="paint0_linear_311_288" x1="500.635" y1="20.0027" x2="562.988" y2="20.0027" gradientUnits="userSpaceOnUse">
<stop stop-opacity="0.55"/>
<stop offset="1" stop-opacity="0"/>
</linearGradient>
</defs>
</svg>
