<svg width="492" height="492" viewBox="0 0 492 492" fill="none" xmlns="http://www.w3.org/2000/svg">
<circle cx="246" cy="246" r="241" fill="#052E16" stroke="#4ADE80" stroke-width="10"/>
<path d="M194 28V462" stroke="#166534" stroke-width="8" stroke-linecap="round"/>
<path d="M292 28V462" stroke="#166534" stroke-width="8" stroke-linecap="round"/>
<path d="M390 83V407" stroke="#166534" stroke-width="8" stroke-linecap="round"/>
<path d="M96 83V407" stroke="#166534" stroke-width="8" stroke-linecap="round"/>
<path d="M460 196L26 196" stroke="#166534" stroke-width="8" stroke-linecap="round"/>
<path d="M460 294L26 294" stroke="#166534" stroke-width="8" stroke-linecap="round"/>
<path d="M405 392L81 392" stroke="#166534" stroke-width="8" stroke-linecap="round"/>
<path d="M405 98L81 98" stroke="#166534" stroke-width="8" stroke-linecap="round"/>
<mask id="path-10-inside-1_315_399" fill="white">
<path d="M349.771 137.234H167.59L169.695 165.706L346.347 166.429C372.82 166.429 387.385 180.994 387.385 207.446C387.385 233.898 372.437 248.804 346.347 248.804H280.347C272.395 248.804 265.931 255.225 265.931 263.114V362.01C265.931 370.814 272.778 378.149 281.177 378.426H281.687C285.854 378.426 289.746 376.874 292.68 374.046C295.742 371.09 297.443 367.092 297.443 362.797V278.041H349.75C392.594 278.041 419.216 250.994 419.216 207.467C419.216 163.941 392.594 137.255 349.75 137.255"/>
</mask>
<path d="M349.771 137.234H167.59L169.695 165.706L346.347 166.429C372.82 166.429 387.385 180.994 387.385 207.446C387.385 233.898 372.437 248.804 346.347 248.804H280.347C272.395 248.804 265.931 255.225 265.931 263.114V362.01C265.931 370.814 272.778 378.149 281.177 378.426H281.687C285.854 378.426 289.746 376.874 292.68 374.046C295.742 371.09 297.443 367.092 297.443 362.797V278.041H349.75C392.594 278.041 419.216 250.994 419.216 207.467C419.216 163.941 392.594 137.255 349.75 137.255" fill="#22C55E"/>
<path d="M167.59 137.234V132.234H162.207L162.603 137.603L167.59 137.234ZM169.695 165.706L164.709 166.074L165.05 170.687L169.674 170.706L169.695 165.706ZM346.347 166.429L346.327 171.429L346.337 171.429H346.347V166.429ZM281.177 378.426L281.012 383.423L281.094 383.426H281.177V378.426ZM292.68 374.046L296.15 377.646L296.152 377.643L292.68 374.046ZM297.443 278.041V273.041H292.443V278.041H297.443ZM349.771 137.234V132.234H167.59V137.234V142.234H349.771V137.234ZM167.59 137.234L162.603 137.603L164.709 166.074L169.695 165.706L174.681 165.337L172.576 136.865L167.59 137.234ZM169.695 165.706L169.674 170.706L346.327 171.429L346.347 166.429L346.368 161.429L169.715 160.706L169.695 165.706ZM346.347 166.429V171.429C358.691 171.429 367.513 174.811 373.258 180.554C379.003 186.297 382.385 195.113 382.385 207.446H387.385H392.385C392.385 193.327 388.484 181.635 380.328 173.482C372.173 165.329 360.476 161.429 346.347 161.429V166.429ZM387.385 207.446H382.385C382.385 219.746 378.925 228.669 373.106 234.517C367.289 240.363 358.452 243.804 346.347 243.804V248.804V253.804C360.333 253.804 372.014 249.791 380.194 241.571C388.371 233.354 392.385 221.598 392.385 207.446H387.385ZM346.347 248.804V243.804H280.347V248.804V253.804H346.347V248.804ZM280.347 248.804V243.804C269.667 243.804 260.931 252.43 260.931 263.114H265.931H270.931C270.931 258.02 275.123 253.804 280.347 253.804V248.804ZM265.931 263.114H260.931V362.01H265.931H270.931V263.114H265.931ZM265.931 362.01H260.931C260.931 373.326 269.736 383.052 281.012 383.423L281.177 378.426L281.341 373.429C275.819 373.247 270.931 368.301 270.931 362.01H265.931ZM281.177 378.426V383.426H281.687V378.426V373.426H281.177V378.426ZM281.687 378.426V383.426C287.118 383.426 292.262 381.393 296.15 377.646L292.68 374.046L289.21 370.446C287.229 372.355 284.591 373.426 281.687 373.426V378.426ZM292.68 374.046L296.152 377.643C300.193 373.743 302.443 368.445 302.443 362.797H297.443H292.443C292.443 365.74 291.29 368.438 289.207 370.448L292.68 374.046ZM297.443 362.797H302.443V278.041H297.443H292.443V362.797H297.443ZM297.443 278.041V283.041H349.75V278.041V273.041H297.443V278.041ZM349.75 278.041V283.041C372.242 283.041 390.988 275.918 404.113 262.584C417.228 249.259 424.216 230.255 424.216 207.467H419.216H414.216C414.216 228.206 407.892 244.489 396.986 255.569C386.089 266.64 370.102 273.041 349.75 273.041V278.041ZM419.216 207.467H424.216C424.216 184.678 417.227 165.756 404.1 152.518C390.968 139.276 372.223 132.255 349.75 132.255V137.255V142.255C370.121 142.255 386.109 148.577 396.999 159.559C407.894 170.546 414.216 186.73 414.216 207.467H419.216Z" fill="white" mask="url(#path-10-inside-1_315_399)"/>
<path d="M177.074 137.083H269.908L266.315 166.427H191.639L177.074 137.083Z" fill="url(#paint0_linear_315_399)"/>
<mask id="path-13-inside-2_315_399" fill="white">
<path d="M179.84 137H111.756C103.059 137 96 144.017 96 152.629C96 160.135 102.166 166.216 109.715 166.216H176.416C202.889 166.216 217.454 180.782 217.454 207.233C217.454 233.685 202.485 248.591 176.416 248.591H110.438C102.464 248.591 96 255.013 96 262.901V361.798C96 370.601 102.847 377.958 111.267 378.213H111.777C112.032 378.213 112.287 378.213 112.564 378.171C116.391 378.022 120.006 376.47 122.77 373.833C125.832 370.899 127.554 366.837 127.533 362.606V277.828H179.84C222.685 277.828 249.306 250.781 249.306 207.255C249.306 163.728 222.685 137.021 179.84 137.021"/>
</mask>
<path d="M179.84 137H111.756C103.059 137 96 144.017 96 152.629C96 160.135 102.166 166.216 109.715 166.216H176.416C202.889 166.216 217.454 180.782 217.454 207.233C217.454 233.685 202.485 248.591 176.416 248.591H110.438C102.464 248.591 96 255.013 96 262.901V361.798C96 370.601 102.847 377.958 111.267 378.213H111.777C112.032 378.213 112.287 378.213 112.564 378.171C116.391 378.022 120.006 376.47 122.77 373.833C125.832 370.899 127.554 366.837 127.533 362.606V277.828H179.84C222.685 277.828 249.306 250.781 249.306 207.255C249.306 163.728 222.685 137.021 179.84 137.021" fill="#22C55E"/>
<path d="M111.267 378.213L111.115 383.211L111.191 383.213H111.267V378.213ZM112.564 378.171L112.37 373.175L112.085 373.186L111.804 373.229L112.564 378.171ZM122.77 373.833L126.221 377.451L126.23 377.443L122.77 373.833ZM127.533 362.606H122.533V362.618L122.533 362.631L127.533 362.606ZM127.533 277.828V272.828H122.533V277.828H127.533ZM179.84 137V132H111.756V137V142H179.84V137ZM111.756 137V132C100.333 132 91 141.22 91 152.629H96H101C101 146.813 105.786 142 111.756 142V137ZM96 152.629H91C91 162.947 99.4555 171.216 109.715 171.216V166.216V161.216C104.877 161.216 101 157.323 101 152.629H96ZM109.715 166.216V171.216H176.416V166.216V161.216H109.715V166.216ZM176.416 166.216V171.216C188.76 171.216 197.582 174.598 203.327 180.341C209.072 186.084 212.454 194.901 212.454 207.233H217.454H222.454C222.454 193.114 218.553 181.422 210.397 173.269C202.242 165.116 190.545 161.216 176.416 161.216V166.216ZM217.454 207.233H212.454C212.454 219.531 208.99 228.455 203.167 234.304C197.347 240.151 188.509 243.591 176.416 243.591V248.591V253.591C190.392 253.591 202.073 249.578 210.254 241.359C218.433 233.143 222.454 221.387 222.454 207.233H217.454ZM176.416 248.591V243.591H110.438V248.591V253.591H176.416V248.591ZM110.438 248.591V243.591C99.741 243.591 91 252.213 91 262.901H96H101C101 257.812 105.187 253.591 110.438 253.591V248.591ZM96 262.901H91V361.798H96H101V262.901H96ZM96 361.798H91C91 373.106 99.8012 382.868 111.115 383.211L111.267 378.213L111.418 373.216C105.892 373.048 101 368.096 101 361.798H96ZM111.267 378.213V383.213H111.777V378.213V373.213H111.267V378.213ZM111.777 378.213V383.213C111.994 383.213 112.616 383.222 113.324 383.113L112.564 378.171L111.804 373.229C111.895 373.215 111.955 373.212 111.959 373.212C111.959 373.212 111.948 373.213 111.917 373.213C111.902 373.213 111.883 373.213 111.86 373.213C111.835 373.213 111.81 373.213 111.777 373.213V378.213ZM112.564 378.171L112.758 383.167C117.821 382.97 122.589 380.916 126.221 377.451L122.77 373.833L119.319 370.215C117.423 372.023 114.962 373.074 112.37 373.175L112.564 378.171ZM122.77 373.833L126.23 377.443C130.28 373.561 132.561 368.187 132.533 362.581L127.533 362.606L122.533 362.631C122.547 365.488 121.384 368.236 119.31 370.223L122.77 373.833ZM127.533 362.606H132.533V277.828H127.533H122.533V362.606H127.533ZM127.533 277.828V282.828H179.84V277.828V272.828H127.533V277.828ZM179.84 277.828V282.828C202.332 282.828 221.079 275.705 234.203 262.371C247.319 249.046 254.306 230.042 254.306 207.255H249.306H244.306C244.306 227.993 237.983 244.276 227.076 255.356C216.179 266.428 200.192 272.828 179.84 272.828V277.828ZM249.306 207.255H254.306C254.306 184.466 247.317 165.539 234.191 152.296C221.06 139.048 202.314 132.021 179.84 132.021V137.021V142.021C200.21 142.021 216.198 148.348 227.089 159.335C237.984 170.328 244.306 186.517 244.306 207.255H249.306Z" fill="white" mask="url(#path-13-inside-2_315_399)"/>
<defs>
<linearGradient id="paint0_linear_315_399" x1="177.074" y1="151.755" x2="269.887" y2="151.755" gradientUnits="userSpaceOnUse">
<stop stop-color="#211900"/>
<stop offset="0.31" stop-color="#0F0B00" stop-opacity="0.47"/>
<stop offset="0.65" stop-color="#030200" stop-opacity="0.12"/>
<stop offset="1" stop-opacity="0"/>
</linearGradient>
</defs>
</svg>
