<svg width="512" height="512" viewBox="0 0 512 512" fill="none" xmlns="http://www.w3.org/2000/svg">
<circle cx="256" cy="256" r="251" fill="#052E16" stroke="#4ADE80" stroke-width="10"/>
<path d="M201.886 29.1382V480.78" stroke="#166534" stroke-width="8" stroke-linecap="round"/>
<path d="M303.87 29.1382V480.78" stroke="#166534" stroke-width="8" stroke-linecap="round"/>
<path d="M405.854 86.374V423.545" stroke="#166534" stroke-width="8" stroke-linecap="round"/>
<path d="M99.9023 86.374V423.545" stroke="#166534" stroke-width="8" stroke-linecap="round"/>
<path d="M478.699 203.967L27.057 203.967" stroke="#166534" stroke-width="8" stroke-linecap="round"/>
<path d="M478.699 305.951L27.057 305.951" stroke="#166534" stroke-width="8" stroke-linecap="round"/>
<path d="M421.464 407.935L84.2931 407.935" stroke="#166534" stroke-width="8" stroke-linecap="round"/>
<path d="M421.464 101.984L84.2931 101.984" stroke="#166534" stroke-width="8" stroke-linecap="round"/>
<mask id="path-10-inside-1_315_399" fill="white">
<path d="M363.988 142.812H174.401L176.592 172.442L360.426 173.194C387.974 173.194 403.131 188.352 403.131 215.879C403.131 243.406 387.576 258.918 360.426 258.918H291.742C283.467 258.918 276.74 265.6 276.74 273.81V376.726C276.74 385.887 283.865 393.521 292.605 393.809H293.136C297.473 393.809 301.523 392.194 304.576 389.251C307.763 386.175 309.533 382.015 309.533 377.545V289.343H363.966C408.552 289.343 436.256 261.197 436.256 215.901C436.256 170.605 408.552 142.835 363.966 142.835"/>
</mask>
<path d="M363.988 142.812H174.401L176.592 172.442L360.426 173.194C387.974 173.194 403.131 188.352 403.131 215.879C403.131 243.406 387.576 258.918 360.426 258.918H291.742C283.467 258.918 276.74 265.6 276.74 273.81V376.726C276.74 385.887 283.865 393.521 292.605 393.809H293.136C297.473 393.809 301.523 392.194 304.576 389.251C307.763 386.175 309.533 382.015 309.533 377.545V289.343H363.966C408.552 289.343 436.256 261.197 436.256 215.901C436.256 170.605 408.552 142.835 363.966 142.835" fill="#22C55E"/>
<path d="M174.401 142.812V137.812H169.018L169.415 143.181L174.401 142.812ZM176.592 172.442L171.606 172.81L171.947 177.423L176.572 177.442L176.592 172.442ZM360.426 173.194L360.405 178.194L360.415 178.194H360.426V173.194ZM292.605 393.809L292.441 398.806L292.523 398.809H292.605V393.809ZM304.576 389.251L308.046 392.851L308.049 392.848L304.576 389.251ZM309.533 289.343V284.343H304.533V289.343H309.533ZM363.988 142.812V137.812H174.401V142.812V147.812H363.988V142.812ZM174.401 142.812L169.415 143.181L171.606 172.81L176.592 172.442L181.578 172.073L179.388 142.444L174.401 142.812ZM176.592 172.442L176.572 177.442L360.405 178.194L360.426 173.194L360.446 168.194L176.612 167.442L176.592 172.442ZM360.426 173.194V178.194C373.308 178.194 382.547 181.724 388.574 187.75C394.602 193.775 398.131 203.008 398.131 215.879H403.131H408.131C408.131 201.222 404.082 189.113 395.644 180.678C387.206 172.243 375.092 168.194 360.426 168.194V173.194ZM403.131 215.879H398.131C398.131 228.716 394.52 238.06 388.415 244.194C382.314 250.325 373.06 253.918 360.426 253.918V258.918V263.918C374.941 263.918 387.04 259.754 395.504 251.248C403.965 242.744 408.131 230.568 408.131 215.879H403.131ZM360.426 258.918V253.918H291.742V258.918V263.918H360.426V258.918ZM291.742 258.918V253.918C280.739 253.918 271.74 262.805 271.74 273.81H276.74H281.74C281.74 268.395 286.195 263.918 291.742 263.918V258.918ZM276.74 273.81H271.74V376.726H276.74H281.74V273.81H276.74ZM276.74 376.726H271.74C271.74 388.4 280.824 398.424 292.441 398.806L292.605 393.809L292.77 388.812C286.907 388.619 281.74 383.375 281.74 376.726H276.74ZM292.605 393.809V398.809H293.136V393.809V388.809H292.605V393.809ZM293.136 393.809V398.809C298.737 398.809 304.039 396.713 308.046 392.851L304.576 389.251L301.107 385.651C299.006 387.675 296.21 388.809 293.136 388.809V393.809ZM304.576 389.251L308.049 392.848C312.214 388.828 314.533 383.368 314.533 377.545H309.533H304.533C304.533 380.662 303.311 383.522 301.104 385.653L304.576 389.251ZM309.533 377.545H314.533V289.343H309.533H304.533V377.545H309.533ZM309.533 289.343V294.343H363.966V289.343V284.343H309.533V289.343ZM363.966 289.343V294.343C387.329 294.343 406.782 286.945 420.394 273.115C433.998 259.295 441.256 239.573 441.256 215.901H436.256H431.256C431.256 237.524 424.662 254.524 413.267 266.101C401.882 277.668 385.189 284.343 363.966 284.343V289.343ZM436.256 215.901H441.256C441.256 192.227 433.996 172.591 420.381 158.861C406.761 145.127 387.31 137.835 363.966 137.835V142.835V147.835C385.208 147.835 401.902 154.428 413.28 165.903C424.663 177.381 431.256 194.279 431.256 215.901H436.256Z" fill="white" mask="url(#path-10-inside-1_315_399)"/>
<path d="M184.271 142.656H280.878L277.139 173.192H199.428L184.271 142.656Z" fill="url(#paint0_linear_315_399)"/>
<mask id="path-13-inside-2_315_399" fill="white">
<path d="M187.147 142.569H116.296C107.246 142.569 99.8994 149.872 99.8994 158.833C99.8994 166.644 106.316 172.973 114.171 172.973H183.585C211.133 172.973 226.291 188.131 226.291 215.658C226.291 243.185 210.713 258.696 183.585 258.696H114.924C106.626 258.696 99.8994 265.379 99.8994 273.589V376.505C99.8994 385.666 107.024 393.323 115.787 393.588H116.318C116.583 393.588 116.849 393.588 117.137 393.544C121.12 393.389 124.881 391.774 127.758 389.03C130.944 385.976 132.736 381.75 132.714 377.346V289.122H187.147C231.734 289.122 259.437 260.976 259.437 215.68C259.437 170.384 231.734 142.591 187.147 142.591"/>
</mask>
<path d="M187.147 142.569H116.296C107.246 142.569 99.8994 149.872 99.8994 158.833C99.8994 166.644 106.316 172.973 114.171 172.973H183.585C211.133 172.973 226.291 188.131 226.291 215.658C226.291 243.185 210.713 258.696 183.585 258.696H114.924C106.626 258.696 99.8994 265.379 99.8994 273.589V376.505C99.8994 385.666 107.024 393.323 115.787 393.588H116.318C116.583 393.588 116.849 393.588 117.137 393.544C121.12 393.389 124.881 391.774 127.758 389.03C130.944 385.976 132.736 381.75 132.714 377.346V289.122H187.147C231.734 289.122 259.437 260.976 259.437 215.68C259.437 170.384 231.734 142.591 187.147 142.591" fill="#22C55E"/>
<path d="M115.787 393.588L115.635 398.586L115.711 398.588H115.787V393.588ZM117.137 393.544L116.942 388.548L116.658 388.559L116.376 388.602L117.137 393.544ZM127.758 389.03L131.209 392.648L131.217 392.64L127.758 389.03ZM132.714 377.346H127.714V377.359L127.714 377.371L132.714 377.346ZM132.714 289.122V284.122H127.714V289.122H132.714ZM187.147 142.569V137.569H116.296V142.569V147.569H187.147V142.569ZM116.296 142.569V137.569C104.519 137.569 94.8994 147.075 94.8994 158.833H99.8994H104.899C104.899 152.668 109.972 147.569 116.296 147.569V142.569ZM99.8994 158.833H94.8994C94.8994 169.456 103.606 177.973 114.171 177.973V172.973V167.973C109.027 167.973 104.899 163.833 104.899 158.833H99.8994ZM114.171 172.973V177.973H183.585V172.973V167.973H114.171V172.973ZM183.585 172.973V177.973C196.467 177.973 205.706 181.503 211.733 187.529C217.761 193.554 221.291 202.787 221.291 215.658H226.291H231.291C231.291 201.001 227.242 188.892 218.803 180.457C210.365 172.021 198.251 167.973 183.585 167.973V172.973ZM226.291 215.658H221.291C221.291 228.493 217.674 237.837 211.567 243.972C205.463 250.105 196.208 253.696 183.585 253.696V258.696V263.696C198.09 263.696 210.188 259.532 218.654 251.027C227.118 242.525 231.291 230.349 231.291 215.658H226.291ZM183.585 258.696V253.696H114.924V258.696V263.696H183.585V258.696ZM114.924 258.696V253.696C103.903 253.696 94.8994 262.579 94.8994 273.589H99.8994H104.899C104.899 268.179 109.349 263.696 114.924 263.696V258.696ZM99.8994 273.589H94.8994V376.505H99.8994H104.899V273.589H99.8994ZM99.8994 376.505H94.8994C94.8994 388.172 103.979 398.233 115.635 398.586L115.787 393.588L115.938 388.59C110.07 388.413 104.899 383.161 104.899 376.505H99.8994ZM115.787 393.588V398.588H116.318V393.588V388.588H115.787V393.588ZM116.318 393.588V398.588C116.545 398.588 117.177 398.596 117.897 398.486L117.137 393.544L116.376 388.602C116.462 388.589 116.517 388.587 116.515 388.587C116.513 388.587 116.499 388.587 116.466 388.588C116.449 388.588 116.429 388.588 116.404 388.588C116.379 388.588 116.352 388.588 116.318 388.588V393.588ZM117.137 393.544L117.331 398.54C122.549 398.337 127.464 396.22 131.209 392.648L127.758 389.03L124.307 385.412C122.298 387.327 119.69 388.441 116.942 388.548L117.137 393.544ZM127.758 389.03L131.217 392.64C135.392 388.639 137.743 383.099 137.714 377.321L132.714 377.346L127.714 377.371C127.729 380.4 126.496 383.313 124.298 385.42L127.758 389.03ZM132.714 377.346H137.714V289.122H132.714H127.714V377.346H132.714ZM132.714 289.122V294.122H187.147V289.122V284.122H132.714V289.122ZM187.147 289.122V294.122C210.511 294.122 229.963 286.724 243.576 272.894C257.179 259.074 264.437 239.352 264.437 215.68H259.437H254.437C254.437 237.303 247.843 254.303 236.449 265.88C225.063 277.447 208.37 284.122 187.147 284.122V289.122ZM259.437 215.68H264.437C264.437 192.006 257.178 172.365 243.563 158.63C229.944 144.89 210.493 137.591 187.147 137.591V142.591V147.591C208.388 147.591 225.082 154.19 236.461 165.67C247.845 177.154 254.437 194.058 254.437 215.68H259.437Z" fill="white" mask="url(#path-13-inside-2_315_399)"/>
<defs>
<linearGradient id="paint0_linear_315_399" x1="184.271" y1="157.924" x2="280.856" y2="157.924" gradientUnits="userSpaceOnUse">
<stop stop-color="#211900"/>
<stop offset="0.31" stop-color="#0F0B00" stop-opacity="0.47"/>
<stop offset="0.65" stop-color="#030200" stop-opacity="0.12"/>
<stop offset="1" stop-opacity="0"/>
</linearGradient>
</defs>
</svg>
