<svg width="512" height="512" viewBox="0 0 512 512" fill="none" xmlns="http://www.w3.org/2000/svg">
<g clip-path="url(#clip0_313_361)">
<path d="M512 256C512 449.048 449.091 512 256.042 512C62.9939 512 0 449.098 0 256.05C0 63.0013 62.8968 0 255.945 0C448.994 0 512 62.9515 512 256Z" fill="#F46F02"/>
<path d="M356.159 146.234H173.979L176.084 174.706L352.736 175.429C379.208 175.429 393.773 189.994 393.773 216.446C393.773 242.898 378.826 257.804 352.736 257.804H286.736C278.784 257.804 272.32 264.225 272.32 272.114V371.01C272.32 379.814 279.166 387.149 287.565 387.426H288.075C292.243 387.426 296.134 385.874 299.068 383.046C302.13 380.09 303.831 376.092 303.831 371.797V287.041H356.138C398.983 287.041 425.604 259.994 425.604 216.467C425.604 172.941 398.983 146.255 356.138 146.255" fill="white"/>
<path d="M183.463 146.083H276.297L272.703 175.427H198.028L183.463 146.083Z" fill="url(#paint0_linear_313_361)"/>
<path d="M186.228 146H118.145C109.448 146 102.389 153.017 102.389 161.629C102.389 169.135 108.555 175.216 116.103 175.216H182.805C209.278 175.216 223.843 189.782 223.843 216.233C223.843 242.685 208.874 257.591 182.805 257.591H116.826C108.853 257.591 102.389 264.013 102.389 271.901V370.798C102.389 379.601 109.235 386.958 117.655 387.213H118.166C118.421 387.213 118.676 387.213 118.953 387.171C122.78 387.022 126.395 385.47 129.159 382.833C132.221 379.899 133.943 375.837 133.922 371.606V286.828H186.228C229.073 286.828 255.695 259.781 255.695 216.255C255.695 172.728 229.073 146.021 186.228 146.021" fill="white"/>
</g>
<defs>
<linearGradient id="paint0_linear_313_361" x1="183.463" y1="160.755" x2="276.276" y2="160.755" gradientUnits="userSpaceOnUse">
<stop stop-color="#211900"/>
<stop offset="0.31" stop-color="#0F0B00" stop-opacity="0.47"/>
<stop offset="0.65" stop-color="#030200" stop-opacity="0.12"/>
<stop offset="1" stop-opacity="0"/>
</linearGradient>
<clipPath id="clip0_313_361">
<rect width="512" height="512" fill="white"/>
</clipPath>
</defs>
</svg>
