<svg version="1.2" xmlns="http://www.w3.org/2000/svg" viewBox="0 0 512 512" width="512" height="512"><defs><linearGradient id="P" gradientUnits="userSpaceOnUse"/><linearGradient id="g1" x2="1" href="#P" gradientTransform="matrix(92.813,0,0,29.337,186.463,160.755)"><stop stop-color="#211900" stop-opacity="1"/><stop offset=".31" stop-color="#0f0b00" stop-opacity=".47"/><stop offset=".65" stop-color="#030200" stop-opacity=".12"/><stop offset="1" stop-opacity="0"/></linearGradient></defs><style>.a{fill:#1d4ed8}.b{fill:#fff}.c{fill:url(#g1)}</style><path class="a" d="m328.5 492h-145c-19.5 0-38.6-5.2-55.5-14.9-16.9-9.8-30.9-23.8-40.6-40.6l-72.6-125.3c-9.7-16.9-14.8-36-14.8-55.5 0-19.5 5.1-38.6 14.8-55.5l72.6-125.3c9.7-16.9 23.7-31 40.5-40.8 16.9-9.8 36.1-15 55.6-15.1h145c19.5 0 38.6 5.2 55.5 14.9 16.9 9.8 30.9 23.8 40.6 40.6l72.6 125.3c9.7 16.9 14.8 36 14.8 55.5 0 19.5-5.1 38.6-14.8 55.5l-72.6 125.3c-9.7 16.9-23.7 31-40.5 40.8-16.9 9.8-36.1 15-55.6 15.1z"/><path class="b" d="m359.2 146.2h-182.2l2.1 28.5 176.6 0.7c26.5 0 41.1 14.6 41.1 41 0 26.5-15 41.4-41.1 41.4h-66c-7.9 0-14.4 6.4-14.4 14.3v98.9c0 8.8 6.9 16.1 15.3 16.4h0.5c4.1 0 8-1.5 11-4.4 3-2.9 4.7-6.9 4.7-11.2v-84.8h52.3c42.9 0 69.5-27 69.5-70.5 0-43.6-26.6-70.2-69.5-70.2"/><path class="c" d="m186.5 146.1h92.8l-3.6 29.3h-74.7z"/><path class="b" d="m189.2 146h-68.1c-8.7 0-15.7 7-15.7 15.6 0 7.5 6.2 13.6 13.7 13.6h66.7c26.5 0 41 14.6 41 41 0 26.5-14.9 41.4-41 41.4h-66c-7.9 0-14.4 6.4-14.4 14.3v98.9c0 8.8 6.8 16.2 15.3 16.4h0.5q0.3 0 0.8 0c3.8-0.2 7.4-1.7 10.2-4.4 3-2.9 4.7-7 4.7-11.2v-84.8h52.3c42.9 0 69.5-27 69.5-70.5 0-43.6-26.6-70.3-69.5-70.3"/></svg>