<svg version="1.2" xmlns="http://www.w3.org/2000/svg" viewBox="0 0 512 512" width="512" height="512"><defs><linearGradient id="P" gradientUnits="userSpaceOnUse"/><linearGradient id="g1" x2="1" href="#P" gradientTransform="matrix(96.853,0,0,40.706,145.44,91.251)"><stop stop-opacity=".55"/><stop offset="1" stop-opacity="0"/></linearGradient></defs><style>.a{fill:#f46f02}.b{fill:url(#g1)}</style><path class="a" d="m402.3 67.9h-267.2v45.1h261c8.5 0 17.8 0.8 26.2 3.7 8.3 2.9 15.8 7.7 22.1 13.9 6.2 6.2 11 13.8 13.9 22.1 2.9 8.3 2.9 17.1 2.8 25.9 0 8.9 0 17.7-3 26-2.9 8.3-7.6 15.9-13.8 22.1-6.2 6.3-13.8 11.1-22.1 14.1-8.3 2.9-17.1 4-25.9 3.1h-104.2c-6 0-11.8 2.4-16.1 6.6-4.2 4.3-6.6 10-6.7 16v156.2c-0.1 6.5 2.4 12.9 6.9 17.7 4.5 4.9 10.6 7.8 17.2 8.2h0.8c6.5 0 12.7-2.4 17.4-6.9 2.4-2.3 4.3-5 5.6-8.1 1.3-3 1.9-6.3 1.9-9.6v-133.9h82.6c67.7 0 109.7-42.9 109.7-111.4 0-68.5-41.4-110.8-109.1-110.8z"/><path fill-rule="evenodd" class="b" d="m242.3 67.9v45.1h-107.2v-45.1z"/><path class="a" d="m133.6 67.9h-108.7c-12.5 0-24.9 7.8-24.9 22.6 0 14.7 12.4 22.5 24.9 22.5h102.5c8.5 0 18.3 0.4 26.6 3.3 8.3 2.9 15.9 7.7 22.1 13.9 6.2 6.2 11 13.8 13.9 22.1 2.9 8.3 2.8 17.2 2.8 26 0 8.8-0.1 17.6-3 25.9-2.9 8.3-7.6 15.9-13.8 22.2-6.2 6.2-13.8 11-22.1 14-8.3 3-17.1 4-25.9 3.2h-104.2c-6-0.1-11.8 2.3-16.1 6.5-4.3 4.3-6.7 10-6.7 16v156.1c-0.1 6.6 2.3 13 6.8 17.9 4.5 4.8 10.7 7.7 17.3 8.1h0.8q0.7 0 1.3 0c6-0.2 11.7-2.7 16.1-6.8 2.4-2.3 4.3-5.1 5.6-8.1 1.3-3.1 1.9-6.4 1.9-9.7v-134h82.6c67.7 0 109.7-42.9 109.7-111.4 0-68.5-41.8-110.3-109.5-110.3z"/></svg>