<svg width="389" height="290" viewBox="0 0 389 290" fill="none" xmlns="http://www.w3.org/2000/svg">
<path d="M304.787 0.28125H85.9834L88.5116 34.4761L300.675 35.3443C332.469 35.3443 349.963 52.8376 349.963 84.6063C349.963 116.375 332.01 134.277 300.675 134.277H221.408C211.857 134.277 204.093 141.989 204.093 151.464V270.239C204.093 280.812 212.316 289.622 222.404 289.954H223.017C228.022 289.954 232.695 288.09 236.219 284.693C239.897 281.144 241.94 276.342 241.94 271.184V169.391H304.761C356.219 169.391 388.192 136.907 388.192 84.6319C388.192 32.3564 356.219 0.306788 304.761 0.306788" fill="#F37021"/>
<path d="M97.373 0.101562H208.869L204.553 35.3434H114.866L97.373 0.101562Z" fill="url(#paint0_linear_278_2)"/>
<path d="M100.694 0H18.9231C8.47839 0 0 8.4274 0 18.7701C0 27.7849 7.40577 35.0886 16.4715 35.0886H96.5821C128.376 35.0886 145.869 52.5819 145.869 84.3506C145.869 116.119 127.891 134.021 96.5821 134.021H17.3398C7.76336 134.021 0 141.734 0 151.208V269.983C0 280.556 8.22299 289.392 18.3358 289.698H18.9486C19.2551 289.698 19.5616 289.698 19.8936 289.647C24.4903 289.469 28.8316 287.604 32.1514 284.438C35.8288 280.913 37.8973 276.036 37.8718 270.954V169.135H100.694C152.151 169.135 184.124 136.652 184.124 84.3762C184.124 32.1007 152.151 0.0255376 100.694 0.0255376" fill="#F37021"/>
<defs>
<linearGradient id="paint0_linear_278_2" x1="97.373" y1="17.7225" x2="208.843" y2="17.7225" gradientUnits="userSpaceOnUse">
<stop stop-color="#211900"/>
<stop offset="0.31" stop-color="#0F0B00" stop-opacity="0.47"/>
<stop offset="0.65" stop-color="#030200" stop-opacity="0.12"/>
<stop offset="1" stop-opacity="0"/>
</linearGradient>
</defs>
</svg>
